<svg width="233" height="250" viewBox="0 0 233 250" fill="none" xmlns="http://www.w3.org/2000/svg">
<path d="M17.2741 220.932V185.756L44.5985 198.318V220.932H71.923V149.637C71.923 142.413 65.6415 136.446 58.1037 136.446C52.7645 136.446 48.3674 135.818 44.5985 134.247C28.5808 128.908 17.2741 114.775 17.2741 97.5006V26.5198C17.2741 11.7584 29.523 0.451682 44.5985 0.451682H71.923C86.6845 0.451682 98.9334 11.7584 98.9334 26.5198V62.0102L71.923 49.4473V26.5198H44.5985V97.5006C44.5985 104.724 50.566 110.692 58.1037 110.692C62.8149 110.692 67.84 111.006 71.923 113.204C87.3127 118.544 98.9334 132.991 98.9334 149.637V220.932C98.9334 235.379 86.6845 247 71.923 247H44.5985C29.523 247 17.2741 235.693 17.2741 220.932ZM133.518 220.932V185.756L160.843 198.318V220.932H188.167V149.637C188.167 142.413 181.886 136.446 174.348 136.446C169.009 136.446 164.612 135.818 160.843 134.247C144.825 128.908 133.518 114.775 133.518 97.5006V26.5198C133.518 11.7584 145.767 0.451682 160.843 0.451682H188.167C202.929 0.451682 215.178 11.7584 215.178 26.5198V62.0102L188.167 49.4473V26.5198H160.843V97.5006C160.843 104.724 166.81 110.692 174.348 110.692C179.059 110.692 184.084 111.006 188.167 113.204C203.557 118.544 215.178 132.991 215.178 149.637V220.932C215.178 235.379 202.929 247 188.167 247H160.843C145.767 247 133.518 235.693 133.518 220.932Z" fill="#64BC46"/>
</svg>
