<svg width="551" height="250" viewBox="0 0 551 250" fill="none" xmlns="http://www.w3.org/2000/svg">
<path d="M251.487 103.224V88.0195L263.297 93.4496V103.224H275.108V72.4079C275.108 69.2856 272.393 66.7063 269.135 66.7063C266.827 66.7063 264.926 66.4348 263.297 65.756C256.374 63.4482 251.487 57.3393 251.487 49.8729V19.1927C251.487 12.8123 256.781 7.92515 263.297 7.92515H275.108C281.488 7.92515 286.783 12.8123 286.783 19.1927V34.5328L275.108 29.1026V19.1927H263.297V49.8729C263.297 52.9952 265.877 55.5745 269.135 55.5745C271.171 55.5745 273.343 55.7103 275.108 56.6605C281.76 58.9683 286.783 65.213 286.783 72.4079V103.224C286.783 109.468 281.488 114.491 275.108 114.491H263.297C256.781 114.491 251.487 109.604 251.487 103.224ZM313.542 55.303H325.353V19.1927H313.542V55.303ZM301.731 114.491V7.92515H325.353C331.733 7.92515 337.027 12.8123 337.027 19.1927V55.303C337.027 61.4119 331.733 66.4348 325.353 66.4348H313.542V114.491H301.731ZM363.787 103.224H375.597V19.1927H363.787V103.224ZM363.787 7.92515H375.597C381.978 7.92515 387.272 12.8123 387.272 19.1927V103.224C387.272 109.468 381.978 114.491 375.597 114.491H363.787C357.27 114.491 351.976 109.604 351.976 103.224V19.1927C351.976 12.8123 357.27 7.92515 363.787 7.92515ZM414.031 19.1927V55.303H425.842V19.1927H414.031ZM414.031 114.491H402.221V7.92515H425.842C432.222 7.92515 437.516 12.8123 437.516 19.1927V55.303C437.516 59.2398 435.344 62.7694 432.086 64.8057L439.281 114.491H427.471L420.412 66.4348H414.031V114.491ZM452.465 7.92515H487.761V19.1927H476.086V114.491H464.276V19.1927H452.465V7.92515ZM516.421 75.666L502.71 7.92515H514.656L522.258 45.5288L529.86 7.92515H541.807L528.096 75.666V114.491H516.421V75.666ZM251.487 227.224V212.02L263.297 217.45V227.224H275.108V196.408C275.108 193.286 272.393 190.706 269.135 190.706C266.827 190.706 264.926 190.435 263.297 189.756C256.374 187.448 251.487 181.339 251.487 173.873V143.193C251.487 136.812 256.781 131.925 263.297 131.925H275.108C281.488 131.925 286.783 136.812 286.783 143.193V158.533L275.108 153.103V143.193H263.297V173.873C263.297 176.995 265.877 179.575 269.135 179.575C271.171 179.575 273.343 179.71 275.108 180.661C281.76 182.968 286.783 189.213 286.783 196.408V227.224C286.783 233.468 281.488 238.491 275.108 238.491H263.297C256.781 238.491 251.487 233.604 251.487 227.224ZM313.542 238.491H301.731V131.925H313.542V238.491ZM340.321 227.224H352.132V143.193H340.321V227.224ZM328.511 131.925H352.132C358.512 131.925 363.807 136.812 363.807 143.193V227.224C363.807 233.468 358.512 238.491 352.132 238.491H328.511V131.925ZM378.755 131.925H408.214V143.193H390.566V179.575H406.449L401.019 190.706H390.566V227.224H408.214V238.491H378.755V131.925Z" fill="white"/>
<path d="M17.7741 221.296V186.119L45.0985 198.682V221.296H72.423V150.001C72.423 142.777 66.1415 136.81 58.6037 136.81C53.2645 136.81 48.8674 136.182 45.0985 134.611C29.0808 129.272 17.7741 115.139 17.7741 97.8646V26.8838C17.7741 12.1223 30.023 0.815604 45.0985 0.815604H72.423C87.1845 0.815604 99.4334 12.1223 99.4334 26.8838V62.3742L72.423 49.8112V26.8838H45.0985V97.8646C45.0985 105.088 51.066 111.056 58.6037 111.056C63.3149 111.056 68.34 111.37 72.423 113.568C87.8127 118.908 99.4334 133.355 99.4334 150.001V221.296C99.4334 235.743 87.1845 247.364 72.423 247.364H45.0985C30.023 247.364 17.7741 236.057 17.7741 221.296ZM134.018 221.296V186.119L161.343 198.682V221.296H188.667V150.001C188.667 142.777 182.386 136.81 174.848 136.81C169.509 136.81 165.112 136.182 161.343 134.611C145.325 129.272 134.018 115.139 134.018 97.8646V26.8838C134.018 12.1223 146.267 0.815604 161.343 0.815604H188.667C203.429 0.815604 215.678 12.1223 215.678 26.8838V62.3742L188.667 49.8112V26.8838H161.343V97.8646C161.343 105.088 167.31 111.056 174.848 111.056C179.559 111.056 184.584 111.37 188.667 113.568C204.057 118.908 215.678 133.355 215.678 150.001V221.296C215.678 235.743 203.429 247.364 188.667 247.364H161.343C146.267 247.364 134.018 236.057 134.018 221.296Z" fill="#64BC46"/>
</svg>
